<svg width="1350" height="768" viewBox="0 0 1350 768" fill="none" xmlns="http://www.w3.org/2000/svg">
<path d="M1098.75 214.73C1082.45 214.73 1068.75 199.482 1068.75 181.342C1068.75 163.201 1082.28 147.761 1098.75 147.761C1115.23 147.761 1128.96 163.009 1128.96 182.125C1128.96 199.882 1115.24 214.746 1098.75 214.746M1081.35 267.809H1095.43L1126.36 220.132C1138.77 201.017 1141.36 194.064 1141.36 181.725C1141.36 156.44 1122.47 136.174 1098.75 136.174C1075.04 136.174 1056.33 156.632 1056.33 181.533C1056.33 206.435 1074.86 226.509 1096.33 226.509C1100.96 226.509 1104.68 225.742 1110.04 223.425L1081.33 267.825L1081.35 267.809ZM844.509 185.385C844.509 176.115 846.549 166.461 849.325 161.635C854.141 153.531 863.59 147.729 872.102 147.729C879.879 147.729 888.591 152.556 893.591 159.509C897.487 164.911 899.711 174.565 899.711 185.369V218.949C899.711 230.729 898.223 239.216 895.263 244.426C890.079 253.505 881.919 258.523 872.102 258.523C863.022 258.523 855.798 254.464 850.245 246.552C846.165 240.766 844.494 232.263 844.494 218.949V185.369L844.509 185.385ZM912.12 182.492C912.12 155.657 895.263 136.158 872.102 136.158C860.43 136.158 849.325 141.752 841.901 151.214C835.045 159.701 832.085 169.354 832.085 182.492V221.091C832.085 234.213 834.125 243.291 838.573 250.819C846.165 263.174 858.206 270.127 872.102 270.127C884.879 270.127 895.999 264.341 903.776 253.521C909.712 245.225 912.12 235.764 912.12 221.091V182.492ZM989.271 136.158L941.983 232.487V244.075H1004.59V267.809H1017V244.075H1028.31V232.487H1017V187.031H1004.59V232.487H954.468L1001.76 136.158H989.271ZM718.69 267.809H797.605V256.222H735.362L775.564 216.264C792.42 199.658 798.157 189.045 798.157 175.54C798.157 153.723 780.932 136.158 759.627 136.158C736.098 136.158 719.61 153.531 719.61 178.433V180.175H731.834C732.018 172.071 732.755 167.053 735.163 162.418C739.611 153.531 749.059 147.745 758.876 147.745C773.508 147.745 785.733 160.292 785.733 175.156C785.733 182.109 782.773 189.253 777.021 196.589C773.876 200.649 771.284 203.35 762.204 212.412L718.674 256.238V267.825L718.69 267.809Z" fill="#F0F0F0"/>
<path fill-rule="evenodd" clip-rule="evenodd" d="M226.548 134C190.534 134 158.815 164.4 158.815 202.423C158.815 240.446 189.353 272.285 226.717 272.285C264.081 272.285 294.282 241.517 294.282 203.142C294.282 164.767 263.253 134 226.548 134ZM226.717 248.182C202.59 248.182 183.141 227.932 183.141 202.791C183.141 177.649 203.249 158.118 226.533 158.118C249.816 158.118 269.925 178.544 269.925 203.334C269.925 228.124 250.123 248.198 226.702 248.198L226.717 248.182Z" fill="#F0F0F0"/>
<path fill-rule="evenodd" clip-rule="evenodd" d="M88.6118 160.26H62V136.158H139.565V160.26H112.954V270.127H88.6118V160.26Z" fill="#F0F0F0"/>
<path fill-rule="evenodd" clip-rule="evenodd" d="M350.251 270.127H325.909V136.158H350.251V270.127Z" fill="#F0F0F0"/>
<path fill-rule="evenodd" clip-rule="evenodd" d="M374.47 203.142L425.883 136.158H394.578L355.297 188.022V218.262L394.655 270.127H425.96L374.47 203.142Z" fill="#F0F0F0"/>
<path fill-rule="evenodd" clip-rule="evenodd" d="M454.397 160.26V136.158H530.597V160.26H454.397Z" fill="#F0F0F0"/>
<path fill-rule="evenodd" clip-rule="evenodd" d="M528.864 190.372V214.474H478.739V246.024H530.597V270.127H454.397V190.372H528.864Z" fill="#F0F0F0"/>
<path fill-rule="evenodd" clip-rule="evenodd" d="M647.306 221.235V136.158H671.647V270.127H650.297L590.938 178.864V270.127H566.596V136.158H592.088L647.306 221.235Z" fill="#F0F0F0"/>
<path d="M116.066 490.6C98.1832 490.6 84.8233 485.855 76.1254 476.296C67.3579 466.736 62.6262 451.525 62 430.661L97.6962 425.219C97.8353 437.081 99.2966 445.663 101.941 451.036C104.654 456.409 108.69 459.061 114.048 459.061C121.076 459.061 124.625 454.525 124.625 445.384C124.625 440.291 123.72 435.616 121.911 431.289C120.102 426.963 117.875 423.335 115.231 420.264C112.587 417.194 108.899 413.636 104.098 409.519L87.3978 395.005C83.362 391.516 80.022 388.306 77.3779 385.446C74.7337 382.585 72.1591 379.096 69.5846 375.118C67.01 371.141 65.2008 366.675 63.9483 361.861C62.7654 356.976 62.1392 351.603 62.1392 345.812C62.1392 330.112 66.8708 317.901 76.2645 309.318C85.6583 300.736 98.5312 296.409 114.953 296.34C120.589 296.34 125.669 296.968 130.261 298.154C134.854 299.34 138.681 300.945 141.881 302.969C145.013 304.922 147.796 307.434 150.162 310.435C152.528 313.435 154.406 316.436 155.868 319.436C157.259 322.436 158.442 325.856 159.416 329.554C160.391 333.322 161.017 336.741 161.365 339.881C161.713 343.021 161.921 346.37 162.13 349.929L126.086 354.604C126.016 351.394 125.947 348.743 125.808 346.649C125.669 344.556 125.46 342.323 125.181 339.951C124.903 337.578 124.486 335.694 123.929 334.229C123.372 332.764 122.677 331.438 121.842 330.182C120.937 328.926 119.893 328.019 118.571 327.53C117.249 326.972 115.649 326.763 113.839 326.832C110.221 326.902 107.438 328.437 105.489 331.438C103.541 334.438 102.567 337.788 102.567 341.556C102.567 345.114 102.984 348.394 103.889 351.324C104.724 354.255 106.255 357.046 108.412 359.837C110.569 362.559 112.309 364.652 113.7 365.978C115.092 367.373 117.319 369.466 120.519 372.397L136.524 386.562C140.907 390.539 144.734 394.307 147.866 397.936C151.066 401.564 154.059 405.681 156.981 410.217C159.834 414.822 162.061 419.846 163.522 425.358C164.983 430.871 165.748 436.802 165.748 443.082C165.748 456.758 161.226 468.132 152.11 477.133C142.786 486.134 130.887 490.6 116.066 490.6ZM185.997 488.018V298.991H227.608V488.018H185.997ZM255.58 488.018V298.991H284.944L323.702 389.772V298.991H358.285V488.018H330.104L291.207 390.19V488.018H255.58ZM435.105 490.74C425.572 490.74 417.361 489.205 410.612 486.134C403.862 483.064 398.434 478.529 394.538 472.598C390.572 466.666 387.719 459.828 385.979 452.083C384.17 444.338 383.335 435.336 383.335 425.149V362.349C383.335 353.976 383.892 346.51 385.075 339.881C386.257 333.252 388.206 327.181 390.85 321.669C393.564 316.087 397.043 311.551 401.357 307.853C405.671 304.225 411.029 301.364 417.5 299.34C423.972 297.317 431.417 296.34 439.906 296.34C448.117 296.34 455.354 297.247 461.616 298.991C467.878 300.736 473.167 303.178 477.342 306.318C481.517 309.458 484.996 313.296 487.64 317.971C490.284 322.646 492.163 327.74 493.346 333.252C494.459 338.764 495.085 344.905 495.085 351.813V363.815H454.31V348.673C454.31 345.812 454.24 343.44 454.171 341.625C454.031 339.811 453.753 337.788 453.266 335.555C452.779 333.322 452.083 331.647 451.109 330.391C450.135 329.205 448.813 328.158 447.004 327.251C445.194 326.344 443.037 325.925 440.463 325.925C437.819 325.925 435.522 326.414 433.713 327.391C431.834 328.368 430.443 329.554 429.469 330.949C428.494 332.345 427.729 334.229 427.172 336.601C426.616 338.974 426.268 341.137 426.129 343.021C425.989 344.975 425.989 347.347 425.989 350.138V436.662C425.989 444.198 427.103 450.129 429.329 454.525C431.556 458.921 435.661 461.084 441.576 461.084C452.501 461.084 457.928 452.711 457.928 435.895V414.682H440.88V389.702H495.573V488.018H467.948L465.582 472.179C459.946 484.529 449.856 490.74 435.105 490.74ZM512.203 488.018L547.899 298.991H594.937L630.425 488.018H592.015L585.544 447.896H558.058L551.657 488.018H512.203ZM561.677 422.916H581.786L571.697 349.719L561.677 422.916ZM649.351 488.018V298.991H712.255C728.954 298.991 741.41 303.666 749.69 313.017C757.971 322.367 762.076 335.973 762.076 353.836C762.076 360.884 761.45 367.234 760.197 372.886C758.945 378.538 757.136 383.282 754.7 387.12C752.265 391.028 749.481 394.307 746.281 396.959C743.08 399.68 739.392 401.773 735.147 403.309C730.903 404.844 726.589 405.89 722.135 406.588C717.682 407.216 712.811 407.565 707.384 407.565H691.032V488.018H649.351ZM704.252 378.468C711.767 378.468 716.708 376.514 719.213 372.676C721.648 368.838 722.901 362.349 722.901 353.139C722.901 349.859 722.831 347.138 722.622 344.905C722.414 342.672 721.996 340.439 721.231 338.206C720.535 335.904 719.491 334.089 718.169 332.764C716.847 331.438 714.968 330.321 712.672 329.484C710.306 328.647 707.453 328.228 704.113 328.228H690.892V378.468H704.252ZM835.556 490.6C825.118 490.6 816.142 489.205 808.766 486.414C801.391 483.622 795.476 479.506 791.162 473.993C786.778 468.481 783.647 461.991 781.698 454.525C779.75 447.059 778.776 438.267 778.776 428.219V358.442C778.776 348.254 779.75 339.462 781.698 332.066C783.647 324.669 786.778 318.18 791.162 312.737C795.545 307.295 801.391 303.178 808.766 300.457C816.142 297.735 825.049 296.34 835.556 296.34C855.944 296.34 870.556 301.573 879.393 312.04C888.23 322.506 892.614 337.997 892.614 358.511V428.289C892.614 448.803 888.23 464.364 879.393 474.83C870.556 485.367 855.944 490.6 835.556 490.6ZM829.154 459.758C830.963 460.666 833.051 461.154 835.556 461.154C838.061 461.154 840.218 460.735 842.027 459.828C843.836 458.921 845.228 457.875 846.202 456.549C847.176 455.223 847.942 453.479 848.568 451.385C849.125 449.292 849.472 447.268 849.612 445.384C849.751 443.5 849.82 441.267 849.82 438.686V347.975C849.82 345.463 849.751 343.3 849.612 341.416C849.472 339.532 849.125 337.578 848.568 335.485C848.011 333.392 847.246 331.717 846.202 330.391C845.228 329.065 843.836 328.019 842.027 327.112C840.218 326.204 838.061 325.786 835.556 325.786C833.051 325.786 830.894 326.204 829.154 327.112C827.345 328.019 826.023 329.065 824.979 330.321C824.005 331.577 823.24 333.252 822.683 335.485C822.126 337.648 821.848 339.602 821.709 341.346C821.57 343.091 821.57 345.323 821.57 347.975V438.616C821.57 441.267 821.639 443.5 821.709 445.315C821.848 447.129 822.126 449.083 822.683 451.246C823.24 453.409 824.005 455.153 824.979 456.409C825.953 457.735 827.345 458.782 829.154 459.758ZM917.664 488.018V298.991H969.086C977.018 298.991 984.116 299.48 990.239 300.387C996.362 301.294 1002.14 302.899 1007.5 305.201C1012.85 307.504 1017.31 310.505 1020.79 314.203C1024.27 317.901 1026.98 322.716 1029 328.577C1030.95 334.438 1031.92 341.276 1031.92 349.091C1031.92 361.512 1030.25 371.42 1026.91 378.956C1023.57 386.492 1017.52 392.353 1008.82 396.54L1034.77 488.088H991.7L971.034 403.518H959.344V488.018H917.664ZM959.275 379.375H969.99C978.48 379.375 984.464 377.142 987.943 372.746C991.422 368.35 993.162 361.651 993.162 352.79C993.162 344.067 991.561 337.578 988.43 333.322C985.299 329.135 979.871 326.972 972.148 326.972H959.275V379.375ZM1056.83 488.018V298.991H1141.51V327.53H1098.44V374.281H1131.28V403.378H1098.44V459.828H1142V488.018H1056.83Z" fill="#F0F0F0"/>
<path d="M72.2683 631.748L93.3834 527.607H62V515.557H108.858V523.017L87.1645 631.748H72.2683Z" fill="#F0F0F0"/>
<path d="M124.729 595.887V584.268H156.981V595.887H124.729Z" fill="#F0F0F0"/>
<path d="M203.222 633.039C196.183 633.039 190.543 631.652 186.301 628.879C182.058 626.106 178.973 622.185 177.045 617.117C175.213 611.952 174.297 605.928 174.297 599.042C174.297 595.122 174.634 591.679 175.309 588.714C175.984 585.75 176.948 583.168 178.202 580.968C179.552 578.673 181.094 576.713 182.83 575.087C184.662 573.366 186.638 571.836 188.759 570.497C184.903 567.915 181.769 564.568 179.359 560.456C176.948 556.248 175.743 550.941 175.743 544.533C175.743 538.413 176.707 533.106 178.636 528.611C180.564 524.116 183.553 520.674 187.602 518.283C191.748 515.797 196.955 514.553 203.222 514.553C209.489 514.553 214.599 515.797 218.552 518.283C222.601 520.674 225.59 524.116 227.518 528.611C229.447 533.106 230.411 538.413 230.411 544.533C230.411 551.036 229.206 556.344 226.795 560.456C224.481 564.568 221.348 567.915 217.395 570.497C219.516 571.836 221.444 573.366 223.18 575.087C225.012 576.713 226.554 578.673 227.808 580.968C229.158 583.168 230.17 585.75 230.845 588.714C231.616 591.679 232.002 595.122 232.002 599.042C232.002 605.928 231.038 611.952 229.109 617.117C227.277 622.185 224.24 626.106 219.998 628.879C215.852 631.652 210.26 633.039 203.222 633.039ZM203.222 620.846C206.982 620.846 209.874 619.89 211.899 617.977C213.924 616.065 215.274 613.483 215.949 610.231C216.72 606.98 217.106 603.346 217.106 599.329C217.106 595.695 216.672 592.301 215.804 589.145C215.033 585.893 213.635 583.263 211.61 581.255C209.585 579.151 206.789 578.099 203.222 578.099C199.654 578.099 196.81 579.104 194.689 581.112C192.664 583.12 191.218 585.75 190.35 589.001C189.482 592.157 189.049 595.6 189.049 599.329C189.049 603.346 189.434 606.98 190.206 610.231C190.977 613.483 192.375 616.065 194.4 617.977C196.521 619.89 199.461 620.846 203.222 620.846ZM203.222 563.468C206.5 563.372 208.958 562.368 210.598 560.456C212.333 558.543 213.538 556.105 214.213 553.14C214.888 550.08 215.225 546.924 215.225 543.673C215.225 538.891 214.358 534.827 212.622 531.48C210.887 528.133 207.753 526.459 203.222 526.459C198.69 526.459 195.508 528.133 193.677 531.48C191.845 534.827 190.929 538.891 190.929 543.673C190.929 546.924 191.266 550.08 191.941 553.14C192.616 556.105 193.821 558.543 195.557 560.456C197.389 562.368 199.944 563.372 203.222 563.468Z" fill="#F0F0F0"/>
<path d="M320.011 633.039C312.105 633.039 305.79 631.509 301.065 628.449C296.341 625.388 292.966 621.037 290.942 615.395C288.917 609.657 287.905 602.963 287.905 595.313V551.275C287.905 543.625 288.917 537.074 290.942 531.623C293.063 526.077 296.437 521.869 301.065 519C305.79 516.036 312.105 514.553 320.011 514.553C327.917 514.553 334.184 516.036 338.812 519C343.44 521.965 346.766 526.172 348.791 531.623C350.912 537.074 351.973 543.625 351.973 551.275V595.456C351.973 603.011 350.912 609.61 348.791 615.252C346.766 620.894 343.44 625.293 338.812 628.449C334.184 631.509 327.917 633.039 320.011 633.039ZM320.011 620.272C324.35 620.272 327.628 619.412 329.845 617.69C332.063 615.873 333.557 613.387 334.329 610.231C335.1 606.98 335.486 603.202 335.486 598.899V547.976C335.486 543.673 335.1 539.991 334.329 536.931C333.557 533.775 332.063 531.384 329.845 529.759C327.628 528.037 324.35 527.177 320.011 527.177C315.672 527.177 312.346 528.037 310.032 529.759C307.814 531.384 306.32 533.775 305.549 536.931C304.777 539.991 304.392 543.673 304.392 547.976V598.899C304.392 603.202 304.777 606.98 305.549 610.231C306.32 613.387 307.814 615.873 310.032 617.69C312.346 619.412 315.672 620.272 320.011 620.272Z" fill="#F0F0F0"/>
<path d="M401.732 633.039C393.441 633.039 386.981 631.318 382.353 627.875C377.821 624.432 374.64 619.794 372.808 613.961C371.072 608.127 370.204 601.624 370.204 594.452V553.427C370.204 545.585 371.072 538.748 372.808 532.914C374.64 527.081 377.821 522.586 382.353 519.43C386.981 516.179 393.441 514.553 401.732 514.553C409.06 514.553 414.845 515.892 419.087 518.57C423.426 521.247 426.511 525.073 428.343 530.045C430.272 535.018 431.236 540.995 431.236 547.976V557.156H415.761V548.98C415.761 544.677 415.52 540.899 415.038 537.648C414.652 534.301 413.495 531.719 411.567 529.902C409.639 528.085 406.409 527.177 401.877 527.177C397.249 527.177 393.875 528.181 391.753 530.189C389.632 532.101 388.234 534.875 387.559 538.509C386.981 542.047 386.692 546.207 386.692 550.988V597.034C386.692 602.868 387.174 607.506 388.138 610.948C389.102 614.295 390.693 616.686 392.91 618.121C395.128 619.555 398.117 620.272 401.877 620.272C406.312 620.272 409.494 619.316 411.422 617.403C413.351 615.395 414.556 612.67 415.038 609.227C415.52 605.784 415.761 601.768 415.761 597.178V588.571H431.236V597.178C431.236 604.254 430.368 610.518 428.632 615.969C426.897 621.324 423.908 625.532 419.666 628.592C415.424 631.557 409.446 633.039 401.732 633.039Z" fill="#F0F0F0"/>
<path d="M464.014 631.748V527.607H444.201V515.557H499.592V527.607H480.357V631.748H464.014Z" fill="#F0F0F0"/>
<path d="M544.737 633.039C536.831 633.039 530.516 631.509 525.791 628.449C521.067 625.388 517.692 621.037 515.668 615.395C513.643 609.657 512.631 602.963 512.631 595.313V551.275C512.631 543.625 513.643 537.074 515.668 531.623C517.789 526.077 521.163 521.869 525.791 519C530.516 516.036 536.831 514.553 544.737 514.553C552.643 514.553 558.91 516.036 563.538 519C568.166 521.965 571.492 526.172 573.517 531.623C575.638 537.074 576.699 543.625 576.699 551.275V595.456C576.699 603.011 575.638 609.61 573.517 615.252C571.492 620.894 568.166 625.293 563.538 628.449C558.91 631.509 552.643 633.039 544.737 633.039ZM544.737 620.272C549.076 620.272 552.354 619.412 554.572 617.69C556.789 615.873 558.284 613.387 559.055 610.231C559.826 606.98 560.212 603.202 560.212 598.899V547.976C560.212 543.673 559.826 539.991 559.055 536.931C558.284 533.775 556.789 531.384 554.572 529.759C552.354 528.037 549.076 527.177 544.737 527.177C540.398 527.177 537.072 528.037 534.758 529.759C532.54 531.384 531.046 533.775 530.275 536.931C529.503 539.991 529.118 543.673 529.118 547.976V598.899C529.118 603.202 529.503 606.98 530.275 610.231C531.046 613.387 532.54 615.873 534.758 617.69C537.072 619.412 540.398 620.272 544.737 620.272Z" fill="#F0F0F0"/>
<path d="M597.1 631.748V515.557H624C629.303 515.557 633.883 516.131 637.739 517.279C641.692 518.426 644.97 520.196 647.574 522.586C650.177 524.977 652.105 528.037 653.359 531.767C654.612 535.401 655.239 539.704 655.239 544.677C655.239 549.458 654.612 553.618 653.359 557.156C652.202 560.599 650.37 563.325 647.863 565.333C645.452 567.341 642.319 568.632 638.462 569.206C643.187 570.258 646.995 572.075 649.888 574.657C652.78 577.143 654.901 580.395 656.251 584.411C657.697 588.332 658.42 593.066 658.42 598.612C658.42 603.585 657.842 608.127 656.685 612.239C655.528 616.351 653.696 619.842 651.189 622.711C648.779 625.58 645.645 627.827 641.789 629.453C638.028 630.983 633.545 631.748 628.339 631.748H597.1ZM613.442 620.129H624.434C631.761 620.129 636.63 618.455 639.041 615.108C641.548 611.666 642.801 606.167 642.801 598.612C642.801 593.735 642.126 589.671 640.776 586.419C639.523 583.072 637.45 580.586 634.557 578.96C631.761 577.239 627.953 576.378 623.132 576.378H613.442V620.129ZM613.442 564.042H623.132C627.76 564.042 631.376 563.42 633.979 562.177C636.582 560.838 638.414 558.734 639.475 555.866C640.535 552.997 641.066 549.267 641.066 544.677C641.066 539.322 640.246 535.449 638.607 533.058C636.968 530.667 634.413 529.185 630.942 528.611C627.471 527.942 622.939 527.607 617.347 527.607H613.442V564.042Z" fill="#F0F0F0"/>
<path d="M677.281 631.748V515.557H722.693V527.607H693.624V566.05H717.198V577.526H693.624V620.129H722.982V631.748H677.281Z" fill="#F0F0F0"/>
<path d="M740.515 631.748V515.557H764.088C771.898 515.557 778.358 516.609 783.468 518.713C788.578 520.721 792.338 524.021 794.749 528.611C797.255 533.106 798.509 539.035 798.509 546.398C798.509 550.893 798.027 555.005 797.063 558.734C796.098 562.368 794.556 565.476 792.435 568.058C790.313 570.545 787.517 572.362 784.046 573.509L800.678 631.748H784.914L769.584 577.239H756.857V631.748H740.515ZM756.857 565.62H763.076C767.704 565.62 771.464 565.046 774.357 563.898C777.249 562.751 779.37 560.79 780.72 558.017C782.07 555.244 782.745 551.371 782.745 546.398C782.745 539.608 781.491 534.731 778.985 531.767C776.478 528.707 771.512 527.177 764.088 527.177H756.857V565.62Z" fill="#F0F0F0"/>
<path d="M854.054 631.748V620.846L883.847 574.8C886.064 571.358 888.089 568.154 889.921 565.189C891.849 562.225 893.392 559.117 894.549 555.866C895.803 552.518 896.429 548.693 896.429 544.39C896.429 539.035 895.561 534.827 893.826 531.767C892.091 528.707 889.053 527.177 884.715 527.177C881.051 527.177 878.207 528.181 876.182 530.189C874.157 532.197 872.759 534.827 871.988 538.078C871.216 541.33 870.831 544.82 870.831 548.55V552.423H855.356V548.406C855.356 541.425 856.272 535.448 858.104 530.476C860.032 525.407 863.069 521.487 867.215 518.713C871.458 515.94 877.05 514.553 883.992 514.553C893.44 514.553 900.479 517.231 905.107 522.586C909.735 527.846 912.049 535.162 912.049 544.533C912.049 549.506 911.422 553.857 910.168 557.587C909.011 561.316 907.469 564.807 905.541 568.058C903.612 571.31 901.491 574.657 899.177 578.099L872.277 618.838H909.301V631.748H854.054Z" fill="#F0F0F0"/>
<path d="M958.985 633.039C952.332 633.039 946.836 631.557 942.498 628.592C938.255 625.628 935.074 621.563 932.952 616.399C930.928 611.235 929.915 605.354 929.915 598.756V548.693C929.915 541.904 930.928 535.974 932.952 530.906C934.977 525.742 938.111 521.726 942.353 518.857C946.692 515.988 952.236 514.553 958.985 514.553C965.734 514.553 971.229 515.988 975.472 518.857C979.714 521.726 982.848 525.742 984.872 530.906C986.897 535.974 987.909 541.904 987.909 548.693V598.756C987.909 605.45 986.849 611.379 984.728 616.543C982.703 621.707 979.569 625.771 975.327 628.736C971.085 631.604 965.637 633.039 958.985 633.039ZM958.985 620.416C962.648 620.416 965.396 619.364 967.228 617.26C969.157 615.156 970.458 612.478 971.133 609.227C971.904 605.88 972.29 602.437 972.29 598.899V548.55C972.29 544.82 971.953 541.33 971.278 538.078C970.603 534.731 969.301 532.054 967.373 530.045C965.541 528.037 962.745 527.033 958.985 527.033C955.224 527.033 952.38 528.037 950.452 530.045C948.523 532.054 947.222 534.731 946.547 538.078C945.872 541.33 945.535 544.82 945.535 548.55V598.899C945.535 602.437 945.872 605.88 946.547 609.227C947.318 612.478 948.668 615.156 950.596 617.26C952.621 619.364 955.417 620.416 958.985 620.416Z" fill="#F0F0F0"/>
<path d="M1006.51 631.748V620.846L1036.3 574.8C1038.52 571.358 1040.54 568.154 1042.37 565.189C1044.3 562.225 1045.85 559.117 1047 555.866C1048.26 552.518 1048.88 548.693 1048.88 544.39C1048.88 539.035 1048.02 534.827 1046.28 531.767C1044.54 528.707 1041.51 527.177 1037.17 527.177C1033.5 527.177 1030.66 528.181 1028.64 530.189C1026.61 532.197 1025.21 534.827 1024.44 538.078C1023.67 541.33 1023.28 544.82 1023.28 548.55V552.423H1007.81V548.406C1007.81 541.425 1008.73 535.448 1010.56 530.476C1012.49 525.407 1015.52 521.487 1019.67 518.713C1023.91 515.94 1029.5 514.553 1036.45 514.553C1045.89 514.553 1052.93 517.231 1057.56 522.586C1062.19 527.846 1064.5 535.162 1064.5 544.533C1064.5 549.506 1063.88 553.857 1062.62 557.587C1061.47 561.316 1059.92 564.807 1057.99 568.058C1056.07 571.31 1053.94 574.657 1051.63 578.099L1024.73 618.838H1061.75V631.748H1006.51Z" fill="#F0F0F0"/>
<path d="M1111.15 633.039C1104.4 633.039 1098.9 631.365 1094.66 628.018C1090.42 624.576 1087.29 619.985 1085.26 614.248C1083.33 608.414 1082.37 601.959 1082.37 594.883V555.722C1082.37 548.167 1083.24 541.282 1084.97 535.066C1086.71 528.85 1089.65 523.877 1093.79 520.148C1098.04 516.418 1103.82 514.553 1111.15 514.553C1117.22 514.553 1122.33 515.653 1126.48 517.853C1130.72 520.052 1133.95 523.256 1136.17 527.463C1138.48 531.671 1139.69 536.787 1139.78 542.812C1139.78 543.003 1139.78 543.29 1139.78 543.673C1139.88 543.96 1139.93 544.246 1139.93 544.533H1124.31C1124.31 538.891 1123.39 534.588 1121.56 531.623C1119.73 528.659 1116.26 527.177 1111.15 527.177C1108.35 527.177 1105.94 528.085 1103.92 529.902C1101.89 531.623 1100.35 534.301 1099.29 537.935C1098.33 541.569 1097.84 546.255 1097.84 551.992V569.636C1099.39 567.245 1101.56 565.333 1104.35 563.898C1107.24 562.368 1110.76 561.603 1114.91 561.603C1121.37 561.603 1126.43 562.99 1130.09 565.763C1133.76 568.536 1136.36 572.457 1137.9 577.526C1139.45 582.498 1140.22 588.38 1140.22 595.169C1140.22 602.15 1139.25 608.51 1137.33 614.248C1135.4 619.985 1132.31 624.576 1128.07 628.018C1123.83 631.365 1118.19 633.039 1111.15 633.039ZM1111.15 620.272C1114.62 620.272 1117.32 619.316 1119.25 617.403C1121.18 615.395 1122.53 612.765 1123.3 609.514C1124.17 606.262 1124.6 602.724 1124.6 598.899C1124.6 594.309 1124.36 590.053 1123.88 586.132C1123.49 582.212 1122.38 579.104 1120.55 576.808C1118.72 574.418 1115.58 573.222 1111.15 573.222C1109.03 573.222 1107.1 573.605 1105.36 574.37C1103.63 575.135 1102.13 576.139 1100.88 577.382C1099.63 578.53 1098.62 579.773 1097.84 581.112V598.469C1097.84 602.389 1098.23 606.023 1099 609.37C1099.87 612.718 1101.27 615.395 1103.19 617.403C1105.12 619.316 1107.77 620.272 1111.15 620.272Z" fill="#F0F0F0"/>
</svg>
